<?xml version="1.0"?>
<svg xmlns="http://www.w3.org/2000/svg" viewBox="0 0 64 64" width="512" height="512"><g id="export"><path d="M54,2H10A3,3,0,0,0,7,5V47a3,3,0,0,0,3,3H23a1,1,0,0,0,0-2H10a1,1,0,0,1-1-1V5a1,1,0,0,1,1-1H25V25a1,1,0,0,0,1.555.832L32,22.2l5.445,3.63A1,1,0,0,0,39,25V4H54a1,1,0,0,1,1,1V47a1,1,0,0,1-1,1H41a1,1,0,0,0,0,2H54a3,3,0,0,0,3-3V5A3,3,0,0,0,54,2ZM37,23.131l-4.445-2.963a1,1,0,0,0-1.11,0L27,23.131V4H37Z"/><path d="M37,62H27a1,1,0,0,1-1-1V46H22a1,1,0,0,1-.768-1.64l10-12a1.033,1.033,0,0,1,1.536,0l10,12A1,1,0,0,1,42,46H38V61A1,1,0,0,1,37,62Zm-9-2h8V45a1,1,0,0,1,1-1h2.865L32,34.562,24.135,44H27a1,1,0,0,1,1,1Z"/></g></svg>
